<?xml version="1.0" encoding="utf-8"?>
<!-- Generator: Adobe Illustrator 24.0.1, SVG Export Plug-In . SVG Version: 6.00 Build 0)  -->
<svg version="1.1" id="Layer_1" xmlns="http://www.w3.org/2000/svg" xmlns:xlink="http://www.w3.org/1999/xlink" x="0px" y="0px"
	 viewBox="0 0 300 150" style="enable-background:new 0 0 300 150;" xml:space="preserve">
<g>
	<path d="M234,70.6l30.7-37.8h-1.3H262h-1.3h-1.3H258h-1.3h-1.3H254h-1.3h-26.2l-25.7,32.1l12.1-15.1V32.7h-1.3h-1.3h-1.3h-1.3h-1.3
		h-1.3h-1.3h-1.3h-1.3h-23.2h-0.3h-1.3h-1.3h-1.3h-58V89L95.8,32.7h-1.3h-1.3h-1.3h-1.3h-1.3h-1.3h-1.3h-1.3h-1.3H62.6l-29.4,84.5
		h23.7h1.3h1.3h1.3h1.3h1.3h1.3h1.3h1.3h1.3l5-16.5h10.4l5.1,16.5H113h0h1.3h0.9h23.2h1.3h1.3h1.3h1.3h1.3h1.3h1.3h1.3h1.3V85.8
		h16.3h1.3h1.3h1.3h1.3h1.3h1.3h1.3h1.3v31.4h23.2h1.3h1.3h1.3h1.3h1.3h1.3h1.3h1.3h1.3V94.5l-5.6-8.4l20.9,31.1h26.7h1.3h1.3h1.3
		h1.3h1.3h1.3h1.3h1.3h1.3L234,70.6z M89.9,116.6l-5-16.1l-0.1-0.5h-0.5H61.8h-0.5l-0.1,0.5l-4.9,16.1H34.1L63,33.4h20.2l28.8,83.2
		H89.9z M166.2,85.2h-27.7h-0.7v0.7v30.8H116V33.4h56.6v18.9h-34.1h-0.7V53v14v0.7h0.7h27.7V85.2z M177.5,67h-1.3h-1.3h-1.3h-1.3
		h-1.3h-1.3h-1.3h-1.3h-16.3V53h22.7h1.3h1.3h1.3h0.3V67z M228.5,116.6l-20.7-30.8l-0.5-0.7l-0.6,0.6l-6.4,6.7l-0.2,0.2v0.3v23.7
		h-21.9V33.4h21.9v31.5v1.9l1.2-1.5l25.5-31.9h24.5l-29.8,36.8l-0.3,0.4l0.3,0.4l32.1,45.6H228.5z"/>
	<path d="M73.8,58.9l-0.6-2.2l-0.7,2.2L64.7,85l-0.3,0.9h0.9h15.4h0.9l-0.2-0.9L73.8,58.9z M77.4,85.2l1.7-5.6l-5.9-20.6l7.5,26.2
		H77.4z"/>
</g>
</svg>
